PathFileType	3	(X/Y/Z)	RCH0000002 BBF 05.c3d
DataRate	CameraRate	NumFrames	NumMarkers	Units	OrigDataRate	OrigDataStartFrame	OrigNumFrames
100.0	100.0	9	23	mm	100.0	348	252
Frame#	Time	T2			T10			MAN			LASI			RASI			LPSI			RPSI			LPAT			LKNE			LANK			LMED			LHEE			LTOE			RPAT			RKNE			RANK			RMED			RHEE			RTOE			RTHI			LTHI			RTIB			LTIB			
		X1	Y1	Z1	X2	Y2	Z2	X3	Y3	Z3	X4	Y4	Z4	X5	Y5	Z5	X6	Y6	Z6	X7	Y7	Z7	X8	Y8	Z8	X9	Y9	Z9	X10	Y10	Z10	X11	Y11	Z11	X12	Y12	Z12	X13	Y13	Z13	X14	Y14	Z14	X15	Y15	Z15	X16	Y16	Z16	X17	Y17	Z17	X18	Y18	Z18	X19	Y19	Z19	X20	Y20	Z20	X21	Y21	Z21	X22	Y22	Z22	X23	Y23	Z23	

348	3.470	842.23959	-45.18876	998.72446	876.94341	-41.92530	816.89445	977.25648	-18.47018	994.15853	970.34364	45.26077	670.60601	991.98176	-128.77945	689.82530	867.43554	-13.88590	723.60839	876.37409	-83.65053	732.93882	1033.59817	2.74409	405.74562	978.87513	50.32662	365.25659	836.27420	42.48490	135.51093	856.33123	-25.73583	144.20580	818.41976	-3.16843	174.95407	884.31253	14.64552	110.31096	957.29692	-83.99434	393.04424	918.45505	-145.05088	365.04971	850.40372	-157.04053	97.07112	828.56724	-92.24505	110.77760	802.08278	-137.32357	134.82176	882.93836	-111.23303	78.55497	961.88077	-208.75875	471.97384	949.03921	122.71197	484.64994	895.51119	-216.72456	250.54756	910.79808	109.08093	272.97865	
349	3.480	852.98746	-44.61922	999.59511	885.69345	-41.85744	817.18819	987.72505	-17.12987	993.33888	981.12483	44.39228	670.85553	1000.44663	-129.92750	690.37925	876.87019	-13.20337	722.54916	884.99660	-82.98874	732.33182	1053.79983	2.37525	410.67161	1001.47516	50.56003	368.23144	867.19127	44.54093	133.84110	886.30999	-23.86345	142.93684	847.40679	-1.08162	172.34099	915.94596	16.35152	110.57466	962.07933	-85.99176	392.69746	922.52523	-146.60806	365.47395	852.39094	-157.76579	97.72347	830.61148	-93.06658	111.91505	804.47946	-138.17470	136.12340	884.56602	-111.78427	78.67877	967.00263	-210.18735	472.05740	967.00694	122.77965	486.55006	898.73026	-218.05961	250.64601	937.42106	110.13818	273.89777	
350	3.490	863.88780	-43.98098	999.69352	894.42462	-41.54484	816.69892	998.42199	-15.96299	991.62487	991.92402	43.41609	670.22506	1008.67266	-131.15485	690.25099	886.17976	-12.38921	720.60397	893.39644	-82.17983	730.95997	1073.49306	1.82221	415.03435	1023.82811	50.82202	370.74542	898.69411	47.32244	131.77985	916.71639	-21.30470	141.14940	876.87559	1.72398	169.11593	948.04512	18.73465	110.51413	967.06429	-87.91316	391.84322	926.73233	-148.04236	365.40425	853.94022	-158.44683	98.08741	832.26718	-93.82147	112.76852	806.51014	-138.95264	137.16562	885.83901	-112.32513	78.63605	971.97765	-211.60034	471.66488	984.99076	122.80817	487.94608	901.91235	-219.26373	250.33014	964.22970	111.54025	274.47863	
351	3.500	874.93061	-43.22290	999.04299	903.20293	-40.97165	815.46653	1009.34390	-14.94256	989.09559	1002.80447	42.33650	668.75913	1016.75014	-132.44702	689.48055	895.46249	-11.45889	717.86362	901.68251	-81.23845	728.90016	1092.56392	1.11542	418.74502	1045.71786	51.07956	372.75325	930.58829	50.66832	129.33773	947.44852	-18.20504	138.82240	906.68945	5.05827	165.26851	980.44767	21.68925	110.12309	972.13967	-89.71480	390.49928	930.96962	-149.33500	364.87580	854.94911	-158.98991	98.20183	833.49204	-94.40552	113.35401	808.07707	-139.52486	137.96827	886.69938	-112.79484	78.45320	976.81556	-212.97121	470.79904	1002.83624	122.76845	488.83421	904.83811	-220.29024	249.65079	990.92475	113.19031	274.73174	
352	3.510	886.09942	-42.29903	997.68034	912.10337	-40.13559	813.54567	1020.47802	-14.03512	985.85421	1013.83075	41.17132	666.52732	1024.78888	-133.77670	688.11916	904.82818	-10.43137	714.44391	909.98218	-80.18336	726.24749	1110.91579	0.27551	421.71133	1066.94493	51.29410	374.19809	962.63414	54.39728	126.52202	978.32881	-14.73253	135.95455	936.65403	8.73354	160.81344	1012.92827	25.06330	109.38638	977.22298	-91.35647	388.70334	935.16117	-150.46747	363.94271	855.36493	-159.31559	98.12320	834.28191	-94.73051	113.70619	809.13080	-139.77736	138.57154	887.12588	-113.14121	78.16469	981.55550	-214.26815	469.48135	1020.40102	122.63249	489.20045	907.32913	-221.10100	248.68362	1017.23282	114.98134	274.63472	
353	3.520	897.37386	-41.17130	995.65349	921.20779	-39.04738	811.00273	1031.80474	-13.20285	982.02246	1025.06602	39.94941	663.61930	1032.91056	-135.10817	686.22651	914.39147	-9.32660	710.47804	918.43266	-79.03535	723.10940	1128.47392	-0.69556	423.84249	1087.34181	51.42081	375.01547	994.53695	58.32009	123.34095	1009.09090	-11.06715	132.56531	966.50663	12.57475	155.79438	1045.19000	28.67055	108.28152	982.27780	-92.80751	386.50794	939.27832	-151.42554	362.67096	855.20046	-159.37379	97.91913	834.67710	-94.74062	113.87562	809.68513	-139.63706	139.03243	887.14175	-113.32972	77.80806	986.26663	-215.45961	467.75130	1037.57278	122.37380	489.02223	909.28567	-221.67386	247.51894	1042.91670	116.80098	274.13996	
354	3.530	908.73201	-39.81152	993.01991	930.60139	-37.72994	807.91345	1043.30018	-12.40588	977.73505	1036.56890	38.70712	660.14043	1041.24008	-136.40254	683.86794	924.26423	-8.16383	706.10928	927.17113	-77.81592	719.59949	1145.18751	-1.81746	425.05669	1106.78315	51.41040	375.14104	1025.94069	62.25077	119.80754	1039.37789	-7.38973	128.69335	995.91241	16.42461	150.28379	1076.86346	32.30737	106.78217	987.32392	-94.05058	383.97397	943.35018	-152.20159	361.12993	854.54128	-159.15341	97.66102	834.76494	-94.42294	113.92425	809.82460	-139.08633	139.41939	886.81738	-113.34921	77.41831	991.04540	-216.51865	465.66350	1054.28133	121.96901	488.27451	910.71427	-222.00661	246.24935	1067.77465	118.53679	273.18830	
355	3.540	920.15271	-38.20262	989.84582	940.36811	-36.21744	804.36141	1054.93867	-11.60479	973.13406	1048.38986	37.48446	656.20798	1049.89675	-137.62280	681.11182	934.54762	-6.96095	701.48430	936.32474	-76.54695	715.83164	1161.02967	-3.12720	425.29038	1125.18978	51.21420	374.52106	1056.42926	66.01712	115.94253	1068.75387	-3.87045	124.39356	1024.47069	20.14539	144.37938	1107.51617	35.77275	104.86350	992.43979	-95.08313	381.16387	947.46585	-152.79538	359.38412	853.54322	-158.68447	97.41686	834.67782	-93.81018	113.91972	809.70320	-138.16682	139.80610	886.26689	-113.21327	77.02270	996.00938	-217.42584	463.28292	1070.50307	121.40069	486.93926	911.73833	-222.11739	244.95763	1091.63129	120.08260	271.72501	
356	3.550	931.61731	-36.33957	986.20605	950.58536	-34.55440	800.43712	1066.69467	-10.76313	968.36374	1060.56722	36.32132	651.94834	1058.98629	-138.73768	678.02725	945.32439	-5.73516	696.74787	946.00136	-75.25144	711.91514	1175.99568	-4.66808	424.50830	1142.52640	50.79228	373.12386	1085.53854	69.47105	111.77636	1096.72939	-0.65668	119.73403	1051.73280	23.61994	138.19805	1136.67317	38.88942	102.50907	997.75649	-95.91681	378.13561	951.76753	-153.21320	357.48652	852.42023	-158.03255	97.24510	834.58674	-92.97524	113.92915	809.53433	-136.97184	140.26481	885.63948	-112.95722	76.63687	1001.28842	-218.17024	460.67950	1086.25680	120.66157	485.01623	912.58850	-222.04176	243.70765	1114.32475	121.34690	269.71468	
